<svg height="511pt" viewBox="-129 1 511 512" width="511pt" xmlns="http://www.w3.org/2000/svg"><path d="M253.598 447.742v56.883a7.381 7.381 0 0 1-7.375 7.375H18.465c-4.078 0-7.387-3.309-7.387-7.375v-56.883c0-28.828 18.945-54.23 46.574-62.457l13.098-3.902a27.913 27.913 0 0 0 15.656-11.871 27.851 27.851 0 0 0 4.317-14.918v-17.29l76.761-22.136v37.492a27.864 27.864 0 0 0 7.274 18.797 27.996 27.996 0 0 0 12.699 7.992l19.578 5.836c27.633 8.227 46.563 33.63 46.563 62.457zm0 0" fill="#ffdba9"/><path d="M207.035 385.281l-19.574-5.836a27.99 27.99 0 0 1-12.703-7.988 27.89 27.89 0 0 1-7.274-18.797v-37.492l-76.761 22.137v11.754l49.937-14.403v37.492a27.879 27.879 0 0 0 7.27 18.797 28.029 28.029 0 0 0 12.703 7.993l19.578 5.835c27.629 8.227 46.562 33.633 46.562 62.457V512h19.45a7.381 7.381 0 0 0 7.375-7.375v-56.883c0-28.828-18.93-54.23-46.563-62.46zm0 0" fill="#ffc473"/><path d="M117.355 339.102h-1.421c-47.715 0-86.399-38.68-86.399-86.399V70.977h174.219v181.73c0 47.715-38.684 86.395-86.399 86.395zm0 0" fill="#ffdba9"/><path d="M211.254 240.773h-7.5v-59.39h7.5c16.266 0 29.453 13.187 29.453 29.453v.484c0 16.27-13.187 29.453-29.453 29.453zm0 0" fill="#ffc473"/><path d="M144.36 31.582v70.848a32.884 32.884 0 0 0 9.632 23.254l10.88 10.879a38.117 38.117 0 0 1 11.163 26.953v5.734c0 6.7 5.434 12.133 12.133 12.133h15.586V72.496c0-22.594-18.32-40.914-40.914-40.914zm0 0" fill="#715539"/><path d="M36.813 106.484h73.882c18.594 0 33.664-15.074 33.664-33.664V31.582c-10.964-20.86-24.468-27.691-30.566-30.105C81.473-11.316 1.625 63.257 1.074 63.94A2.597 2.597 0 0 0 .5 65.574v4.594c0 20.055 16.258 36.316 36.313 36.316zm0 0" fill="#a17852"/><path d="M73.918 199.82c0 4.782-3.879 8.657-8.66 8.657s-8.656-3.875-8.656-8.657 3.875-8.66 8.656-8.66 8.66 3.88 8.66 8.66zm69.266 0c0 4.782-3.875 8.657-8.657 8.657s-8.656-3.875-8.656-8.657 3.875-8.66 8.656-8.66 8.657 3.88 8.657 8.66zm0 0" fill="#57555c"/><path d="M253.598 447.742v27.742h-45.895V512H58.41v-36.516H11.078v-27.742c0-28.828 18.945-54.23 46.574-62.457l13.098-3.902a27.913 27.913 0 0 0 15.656-11.871c11.516 4.66 27.246 9.074 46.074 9.187 16.176.094 30.407-3.008 42.278-7.242a28.008 28.008 0 0 0 12.703 7.992l19.574 5.836c27.633 8.227 46.563 33.63 46.563 62.457zm0 0" fill="#00b7be"/><path d="M207.035 385.281l-19.574-5.836a27.99 27.99 0 0 1-12.703-7.988c-9.64 3.441-20.844 6.133-33.38 6.969a27.865 27.865 0 0 0 6.556 12.52 28.008 28.008 0 0 0 12.703 7.992l19.574 5.835c27.633 8.227 46.562 33.633 46.562 62.457v8.254h26.829v-27.742c-.004-28.828-18.934-54.23-46.567-62.46zm0 0" fill="#01989e"/><path d="M183.832 345.75c-.25.383-.508.762-.773 1.176-3.336 5.086-8.286 12.238-15.477 19.12-3.676 3.528-7.945 6.985-12.887 10.048a72.245 72.245 0 0 1-12.754 6.316c-.898.34-1.804.66-2.722.957a74.805 74.805 0 0 1-14.84 3.363c-5.149.653-10.336.778-15.473.438a87.178 87.178 0 0 1-15.488-2.438 89.565 89.565 0 0 1-15.477-5.449A85.921 85.921 0 0 1 63 370.492a46.767 46.767 0 0 1-1.566-1.176 82.518 82.518 0 0 1-13.91-13.683c-17.583-21.914-24.07-52.496-16.446-82.223 5.79-1.805 15.961-3.25 26.246-8.613 5.387-2.817 9.02-5.707 11.703-8.574 4.035-4.344 9.79-6.668 15.715-6.668h29.723c3.84 0 7.617 1 10.918 2.953a90.403 90.403 0 0 0 18.797 8.375 90.685 90.685 0 0 0 16.765 3.55 10.963 10.963 0 0 0 11.535-7.097 254.366 254.366 0 0 0 7.977-25.477 255.846 255.846 0 0 0 7.707-50.472h15.59c-.059 9.68-.246 35.367 0 59.39.535 52.91-3.074 79.086-19.922 104.973zm0 0" fill="#a17852"/><path d="M203.754 181.266c-.02-2.684-.012-3.86.02-3.86.011 0 0 1.383-.02 3.86zm0 0" fill="#57555c"/><path d="M100.945 297.855c-10.082 0-17.847-3.539-22.632-6.546a7.739 7.739 0 0 1 8.238-13.102c2.558 1.61 7.863 4.3 14.887 4.164 6.218-.11 11.003-2.324 13.921-4.16a7.738 7.738 0 1 1 8.246 13.094c-4.585 2.886-12.109 6.367-21.894 6.539-.258.008-.512.011-.766.011zm0 0" fill="#644b32"/><path d="M63 293.688v76.804a43.223 43.223 0 0 1-1.57-1.176 82.518 82.518 0 0 1-13.91-13.683v-61.95a7.733 7.733 0 0 1 7.738-7.734A7.737 7.737 0 0 1 63 293.687zm30.414 25.546v65.496a89.524 89.524 0 0 1-15.473-5.449v-60.047a7.734 7.734 0 0 1 7.739-7.738 7.733 7.733 0 0 1 7.734 7.738zm30.965 0v67.496c-5.149.653-10.34.778-15.477.438v-67.934a7.736 7.736 0 0 1 7.739-7.738 7.729 7.729 0 0 1 7.738 7.738zm30.312-25.546v82.406a72.475 72.475 0 0 1-12.75 6.316c-.898.34-1.808.66-2.726.957v-89.683a7.733 7.733 0 0 1 7.738-7.735 7.734 7.734 0 0 1 7.738 7.738zm28.364 0v53.238c-3.332 5.086-8.285 12.238-15.477 19.12v-72.358a7.736 7.736 0 0 1 7.738-7.739 7.734 7.734 0 0 1 7.739 7.739zm0 0" fill="#715539"/></svg>